<svg viewBox="0 0 32 32" xmlns="http://www.w3.org/2000/svg">
  <rect width="32" height="32" rx="8" fill="#FFD60A"/>
  <g transform="scale(0.056) translate(45, 40)" fill="#1c1c1e">
    <g transform="matrix(1.5003245,0,0,1.5003245,-284.42757,-669.96488)">
      <g transform="translate(2.6660814)">
        <path d="m 397.07486,659.57964 c -4.95896,2.64594 -10.00687,1.6413 -14.88727,1.33283 -3.70969,-0.2345 -1.78088,-4.0246 -3.03638,-6.80609 -5.90573,3.60363 -12.09817,6.49737 -18.99774,7.63519 -23.26599,3.83685 -50.97775,-11.74689 -52.40921,-41.35205 -0.51678,-10.68817 -3.5643,-20.02856 -12.89346,-26.229 -12.15415,-8.07798 -27.92066,-5.03116 -36.81826,6.94171 -8.34239,11.22577 -6.56723,27.60339 3.9675,36.60363 11.53322,9.85328 27.33849,9.21405 37.91372,-1.49847 1.36572,-1.38348 2.23074,-3.35419 4.94647,-4.11529 2.36282,4.76708 4.38284,9.83496 7.56079,14.25622 1.31177,1.82495 -0.37238,3.02887 -1.60547,4.14905 -7.94733,7.21948 -17.37015,11.39593 -28.00143,11.69171 -15.81504,0.44 -31.65543,0.33997 -47.47768,0.0579 -21.84667,-0.38953 -38.22937,-16.67468 -38.45332,-38.54046 -0.3003,-29.31968 -0.0327,-58.64484 -0.17925,-87.9668 -0.0198,-3.95603 1.2863,-5.24408 5.17558,-5.15048 15.0286,0.36157 12.44956,-1.9415 12.53109,12.21432 0.15066,26.15634 -0.0565,52.31479 0.1053,78.47101 0.10164,16.43249 10.76446,25.2868 27.43547,22.9577 0.29608,-2.33215 -1.41571,-3.91125 -2.35439,-5.71258 -13.18828,-25.3078 0.77941,-57.39209 28.30231,-64.92694 29.26855,-8.01273 56.97995,13.1387 57.54691,43.92413 0.255,13.84705 9.84887,24.91821 23.40981,27.01446 12.61289,1.94971 25.284,-5.89215 29.36149,-18.17108 4.2005,-12.64947 -1.05332,-26.72326 -12.42746,-33.29062 -11.3274,-6.54028 -24.66797,-4.1383 -33.96894,6.05844 -1.08108,1.18519 -1.73315,2.88721 -4.26577,3.48981 -1.82376,-4.98578 -4.29468,-9.78866 -7.24274,-14.33792 -1.18598,-1.8302 0.4147,-3.05399 1.58615,-4.23914 14.50903,-14.67822 41.08002,-16.26025 57.39923,-3.5466 12.15024,9.46582 18.03076,21.93909 18.11533,37.18195 0.0767,13.82379 -0.0911,27.64905 -0.33838,41.9035 z"/>
        <path d="m 455.13494,593.33337 c -5.86154,5.94903 -11.38486,11.73895 -17.12598,17.30432 -2.57812,2.49914 -2.68438,4.36914 -0.19192,7.06555 11.98572,12.96619 23.81656,26.07568 35.68884,39.14655 0.87488,0.96319 1.64288,2.02343 3.54816,4.38879 -5.70874,0 -10.2518,-0.37952 -14.70481,0.0916 -6.22045,0.65808 -10.55804,-1.43853 -14.62146,-6.2763 -8.11706,-9.66382 -16.89538,-18.77216 -25.38354,-28.09119 -1.80841,1.14954 -1.1189,2.62732 -1.13208,3.81995 -0.09,8.16369 -0.0634,16.32855 -0.10306,24.49292 -0.006,1.32684 0.37991,3.19983 -0.32544,3.88928 -4.11462,4.02197 -9.35342,1.45398 -14.08941,1.90857 -3.0459,0.29223 -3.20899,-2.23047 -3.21009,-4.51587 -0.003,-6.99829 -0.0154,-13.99652 -0.0162,-20.99481 -0.004,-32.82532 0.0912,-65.65125 -0.10929,-98.47538 -0.0303,-4.95373 1.22379,-6.73745 6.40149,-6.53225 13.28281,0.52649 11.2551,-1.68576 11.34052,11.45346 0.1181,18.1615 0.0336,36.32431 0.0358,54.48654 2.1e-4,1.63452 6e-5,3.26904 6e-5,4.94202 2.45858,0.2929 3.20327,-1.50428 4.27496,-2.58161 7.28476,-7.32367 14.57059,-14.64993 21.67935,-22.143 2.50159,-2.63678 5.26215,-3.78275 8.83481,-3.69504 5.58987,0.13727 11.18558,0.0364 18.25247,0.0364 -6.09039,8.21753 -12.92383,13.69122 -19.04318,20.27948 z"/>
      </g>
    </g>
  </g>
</svg>
